<svg xmlns="http://www.w3.org/2000/svg" xmlns:xlink="http://www.w3.org/1999/xlink" width="888" height="1000" viewBox="0 0 888 1000">
  <defs>
    <clipPath id="clip-ArtBoardContainer">
      <rect width="888" height="1000"/>
    </clipPath>
  </defs>
  <g id="ArtBoardContainer" clip-path="url(#clip-ArtBoardContainer)">
    <g id="ArtBoard" transform="translate(225.347 213)">
      <g id="AContainer">
        <path id="APart2" d="M0,438V39A39,39,0,0,1,39,0H399a39,39,0,0,1,39,39V438L219,545Z" transform="translate(-0.347 30)" fill="#329969"/>
      </g>
      <g id="ArtBody">
        <g id="APart1" transform="translate(-0.347 0)" fill="#58ffb2">
          <path d="M 218.9997253417969 519.95849609375 L 22.49997138977051 423.9515075683594 L 22.49997138977051 398.9996643066406 L 22.49997138977051 38.99966430664063 C 22.49997138977051 29.90121078491211 29.90169715881348 22.49911880493164 38.99969863891602 22.49911880493164 L 399.0006103515625 22.49911880493164 C 408.0986022949219 22.49911880493164 415.5003356933594 29.90121078491211 415.5003356933594 38.99966430664063 L 415.5003356933594 331.2477416992188 L 415.5003356933594 423.9514770507813 L 218.9997253417969 519.95849609375 Z" stroke="none"/>
          <path d="M 218.9998016357422 494.9165649414063 L 393.0002746582031 409.9027709960938 L 393.0002746582031 331.2477416992188 L 393.0002746582031 44.99908828735352 L 45.00004196166992 44.99908828735352 L 45.00004196166992 398.999755859375 L 45.00004196166992 409.9027709960938 L 218.9998016357422 494.9165649414063 M 218.9997100830078 545.0004272460938 L 4.147677827859297e-05 438.0003051757813 L 4.147677827859297e-05 398.999755859375 L 4.147677827859297e-05 38.999755859375 C 4.147677827859297e-05 17.4599781036377 17.46092987060547 -0.0009108072845265269 38.99970626831055 -0.0009108072845265269 L 399.0006103515625 -0.0009108072845265269 C 420.5393676757813 -0.0009108072845265269 438.0002746582031 17.4599781036377 438.0002746582031 38.999755859375 L 438.0002746582031 331.2477416992188 L 438.0002746582031 438.0003051757813 L 218.9997100830078 545.0004272460938 Z" stroke="none" fill="#45cd8e"/>
        </g>
        <rect id="ATextTag" width="291" height="56" rx="2" transform="translate(73.653 337)" fill="#292c32"/>
        <rect id="AIconCover" width="192" height="158" rx="33" transform="translate(123.653 72)" fill="#292c32"/>
        <text id="ASubjectTag" transform="translate(219.653 378)" fill="#58ffb2" font-size="41" font-family="Bahnschrift" font-weight="700"><tspan x="-84.202" y="0">~</tspan><tspan y="0" text-decoration="underline">UI/ART</tspan><tspan y="0">~</tspan></text>
        <text id="ASubjectTag2" transform="translate(219.653 323)" fill="#292c32" font-size="43" font-family="Bahnschrift" font-weight="600"><tspan x="-27.137" y="0">My</tspan><tspan x="0" y="37"></tspan><tspan x="0" y="74"></tspan><tspan x="-49.519" y="111">Work</tspan></text>
        <path id="ALineDiv" d="M1522.034,1502.031h230.328" transform="translate(-1417.053 -1234.751)" fill="none" stroke="#292c32" stroke-linecap="round" stroke-width="15"/>
        <g id="AIcon" transform="translate(195.215 63.49) rotate(30)">
          <g id="Path_384" data-name="Path 384" transform="matrix(0.574, -0.819, 0.819, 0.574, 0, 86.137)" fill="none">
            <path d="M14.171,13.236C33.876-5.724,63.714-.632,78.9,5.971s38.114,36.976,18.967,50.842-24.429-5.943-38.954,4.622S36.464,83.222,16,75.3-5.533,32.2,14.171,13.236Z" stroke="none"/>
            <path d="M 49.76391220092773 0 C 37.48809051513672 0 24.45038604736328 3.3455810546875 14.17115020751953 13.23638153076172 C -5.532798767089844 32.19573593139648 -4.471199035644531 67.37570953369141 15.99637603759766 75.29833221435547 C 20.8197021484375 77.16549682617188 24.94480133056641 77.96913146972656 28.62541198730469 77.96913146972656 C 40.56333160400391 77.96913146972656 47.81011199951172 69.50851440429688 58.91220092773438 61.43376159667969 C 62.24468612670898 59.00997543334961 65.08970642089844 58.18509674072266 67.72820281982422 58.18509674072266 C 73.35965728759766 58.18509674072266 78.044921875 61.944580078125 84.49952697753906 61.944580078125 C 88.20189666748047 61.944580078125 92.48809814453125 60.70634460449219 97.86609649658203 56.81201171875 C 117.0128479003906 42.94681167602539 94.08417510986328 12.57350921630859 78.89875030517578 5.970512390136719 C 71.63536071777344 2.812370300292969 61.01997756958008 0 49.76391220092773 0 M 49.76390075683594 -10.00001525878906 C 60.87479782104492 -10.00001525878906 72.94740295410156 -7.521537780761719 82.88617706298828 -3.200111389160156 C 96.52067565917969 2.728507995605469 113.0469741821289 21.60903549194336 114.9619522094727 39.22278594970703 C 116.1029510498047 49.71758270263672 112.114501953125 58.84063720703125 103.7312774658203 64.91136169433594 C 97.19554901123047 69.64403533935547 90.90482330322266 71.94458770751953 84.49952697753906 71.94458770751953 C 79.45867919921875 71.94458770751953 75.44517517089844 70.53630828857422 72.22024536132813 69.40473937988281 C 70.43276977539063 68.77753448486328 68.74442291259766 68.18511199951172 67.72819519042969 68.18511199951172 C 67.45677185058594 68.18511199951172 66.63082885742188 68.18511199951172 64.79417419433594 69.52093505859375 C 62.46592330932617 71.21430969238281 60.31789779663086 72.92783355712891 58.25927352905273 74.56653594970703 C 49.98159790039063 81.15566253662109 41.42209625244141 87.96913146972656 28.62542724609375 87.96913146972656 C 23.51294708251953 87.96913146972656 18.20110321044922 86.87493896484375 12.3863525390625 84.62398529052734 C 1.434150695800781 80.38458251953125 -6.365852355957031 70.40065765380859 -9.013450622558594 57.23226165771484 C -12.65309906005859 39.12953567504883 -6.274200439453125 19.03163528442383 7.237548828125 6.030487060546875 C 18.13662719726563 -4.456764221191406 32.84200286865234 -10.00001525878906 49.76390075683594 -10.00001525878906 Z" stroke="none" fill="#58ffb2"/>
          </g>
          <circle id="Ellipse_13" data-name="Ellipse 13" cx="11.412" cy="11.412" r="11.412" transform="matrix(0.574, -0.819, 0.819, 0.574, 42.419, 102.789)" fill="none" stroke="#58ffb2" stroke-width="5"/>
          <path id="Union_54" data-name="Union 54" d="M3.65,63.4a8.558,8.558,0,1,1,4.9,1.548A8.56,8.56,0,0,1,3.65,63.4Zm.471-20.569a8.557,8.557,0,1,1,4.9,1.549A8.559,8.559,0,0,1,4.121,42.835Zm12-17.138a8.558,8.558,0,1,1,4.9,1.548A8.558,8.558,0,0,1,16.122,25.7Zm18.7-10.126a8.557,8.557,0,1,1,4.9,1.549A8.56,8.56,0,0,1,34.821,15.572Z" transform="translate(38.37 18.395) rotate(11)" fill="#58ffb2"/>
        </g>
      </g>
    </g>
  </g>
</svg>
