<svg xmlns="http://www.w3.org/2000/svg" xmlns:xlink="http://www.w3.org/1999/xlink" width="444" height="584" viewBox="0 0 444 584">
  <defs>
    <clipPath id="clip-ArtBoard">
      <rect width="444" height="584"/>
    </clipPath>
  </defs>
  <g id="ArtBoard" clip-path="url(#clip-ArtBoard)">
    <g id="Group_57" data-name="Group 57" transform="translate(-399 -524.5)">
      <g id="Group_50" data-name="Group 50" transform="translate(-13 44)">
        <path id="Union_52" data-name="Union 52" d="M-2225-1808v-399a39,39,0,0,1,39-39h360a39,39,0,0,1,39,39v399l-219,107Z" transform="translate(2640 2761)" fill="#329969"/>
        <g id="Union_53" data-name="Union 53" transform="translate(2640 2731)" fill="#58ffb2">
          <path d="M -2006.000122070313 -1726.0419921875 L -2202.499755859375 -1822.048950195313 L -2202.499755859375 -1846.999877929688 L -2202.499755859375 -2206.999755859375 C -2202.499755859375 -2216.09765625 -2195.09814453125 -2223.49951171875 -2186.000244140625 -2223.49951171875 L -1826.000122070313 -2223.49951171875 C -1816.902221679688 -2223.49951171875 -1809.50048828125 -2216.09765625 -1809.50048828125 -2206.999755859375 L -1809.50048828125 -1914.751831054688 L -1809.50048828125 -1822.048950195313 L -2006.000122070313 -1726.0419921875 Z" stroke="none"/>
          <path d="M -2006.000122070313 -1751.083862304688 L -1832.00048828125 -1836.09765625 L -1832.00048828125 -1914.751831054688 L -1832.00048828125 -2200.99951171875 L -2179.999755859375 -2200.99951171875 L -2179.999755859375 -1846.999877929688 L -2179.999755859375 -1836.09765625 L -2006.000122070313 -1751.083862304688 M -2006.000122070313 -1701 L -2224.999755859375 -1808.000122070313 L -2224.999755859375 -1846.999877929688 L -2224.999755859375 -2206.999755859375 C -2224.999755859375 -2228.53857421875 -2207.5390625 -2245.99951171875 -2186.000244140625 -2245.99951171875 L -1826.000122070313 -2245.99951171875 C -1804.461303710938 -2245.99951171875 -1787.00048828125 -2228.53857421875 -1787.00048828125 -2206.999755859375 L -1787.00048828125 -1914.751831054688 L -1787.00048828125 -1808.000122070313 L -2006.000122070313 -1701 Z" stroke="none" fill="#45cd8e"/>
        </g>
      </g>
      <rect id="Rectangle_87" data-name="Rectangle 87" width="291" height="56" rx="2" transform="translate(476 866)" fill="#292c32"/>
      <rect id="Rectangle_88" data-name="Rectangle 88" width="192" height="158" rx="33" transform="translate(526 601)" fill="#292c32"/>
      <text id="_UI_ART_" data-name="~UI/ART~" transform="translate(622 907)" fill="#58ffb2" font-size="41" font-family="Bahnschrift" font-weight="700"><tspan x="-84.402" y="0">~</tspan><tspan y="0" text-decoration="underline">UI/ART</tspan><tspan y="0">~</tspan></text>
      <text id="My_Work" data-name="My

Work" transform="translate(622 852)" fill="#292c32" font-size="43" font-family="Bahnschrift" font-weight="600"><tspan x="-27.137" y="0">My</tspan><tspan x="0" y="37"></tspan><tspan x="0" y="74"></tspan><tspan x="-49.519" y="111">Work</tspan></text>
      <path id="Path_378" data-name="Path 378" d="M1522.034,1502.031h230.328" transform="translate(-1015.053 -705.75)" fill="none" stroke="#292c32" stroke-linecap="round" stroke-width="15"/>
      <g id="Group_54" data-name="Group 54" transform="translate(473.797 -206.885) rotate(30)">
        <g id="Path_384" data-name="Path 384" transform="matrix(0.574, -0.819, 0.819, 0.574, 506.571, 716.707)" fill="none">
          <path d="M14.171,13.236C33.876-5.724,63.714-.632,78.9,5.971s38.114,36.976,18.967,50.842-24.429-5.943-38.954,4.622S36.464,83.222,16,75.3-5.533,32.2,14.171,13.236Z" stroke="none"/>
          <path d="M 49.76391220092773 0 C 37.48809051513672 0 24.45038604736328 3.345588684082031 14.17115020751953 13.23638916015625 C -5.532798767089844 32.19573974609375 -4.471199035644531 67.37571716308594 15.99637603759766 75.29833984375 C 20.8197021484375 77.16549682617188 24.94480133056641 77.96913146972656 28.62541198730469 77.96913146972656 C 40.56333160400391 77.96913146972656 47.81011199951172 69.50851440429688 58.91220092773438 61.43376159667969 C 62.24468612670898 59.00997924804688 65.08970642089844 58.18510437011719 67.72820281982422 58.18510437011719 C 73.35965728759766 58.18510437011719 78.044921875 61.94458389282227 84.49952697753906 61.94458389282227 C 88.20189666748047 61.94458389282227 92.48809814453125 60.70634841918945 97.86609649658203 56.81201171875 C 117.0128479003906 42.94681549072266 94.08417510986328 12.57351684570313 78.89875030517578 5.970512390136719 C 71.63536071777344 2.812370300292969 61.01997756958008 0 49.76391220092773 0 M 49.76390075683594 -10.00000762939453 C 60.87479782104492 -10.00000762939453 72.94740295410156 -7.521537780761719 82.88617706298828 -3.200111389160156 C 96.52067565917969 2.728515625 113.0469741821289 21.60903930664063 114.9619522094727 39.2227897644043 C 116.1029510498047 49.71759033203125 112.114501953125 58.84063720703125 103.7312774658203 64.91136169433594 C 97.19554901123047 69.64404296875 90.90482330322266 71.94458770751953 84.49952697753906 71.94458770751953 C 79.45867919921875 71.94458770751953 75.44517517089844 70.53631591796875 72.22024536132813 69.40473937988281 C 70.43276977539063 68.77754211425781 68.74442291259766 68.18511199951172 67.72819519042969 68.18511199951172 C 67.45677185058594 68.18511199951172 66.63082885742188 68.18511199951172 64.79417419433594 69.52093505859375 C 62.46592330932617 71.21431732177734 60.31789779663086 72.92784118652344 58.25927352905273 74.56653594970703 C 49.98159790039063 81.15566253662109 41.42209625244141 87.96913909912109 28.62542724609375 87.96913909912109 C 23.51294708251953 87.96913909912109 18.20110321044922 86.87493896484375 12.3863525390625 84.62399291992188 C 1.434150695800781 80.38459014892578 -6.365852355957031 70.40066528320313 -9.013450622558594 57.23226165771484 C -12.65309906005859 39.12953948974609 -6.274200439453125 19.03163909912109 7.237548828125 6.030487060546875 C 18.13662719726563 -4.456764221191406 32.84200286865234 -10.00000762939453 49.76390075683594 -10.00000762939453 Z" stroke="none" fill="#58ffb2"/>
        </g>
        <circle id="Ellipse_13" data-name="Ellipse 13" cx="11.412" cy="11.412" r="11.412" transform="matrix(0.574, -0.819, 0.819, 0.574, 548.99, 733.359)" fill="none" stroke="#58ffb2" stroke-width="5"/>
        <path id="Union_54" data-name="Union 54" d="M-3335.713-2068.2a8.56,8.56,0,0,1-2.1-11.921,8.559,8.559,0,0,1,11.92-2.1,8.558,8.558,0,0,1,2.1,11.92,8.549,8.549,0,0,1-7.018,3.651A8.522,8.522,0,0,1-3335.713-2068.2Zm.471-20.569a8.559,8.559,0,0,1-2.1-11.921,8.559,8.559,0,0,1,11.92-2.1,8.559,8.559,0,0,1,2.1,11.921,8.551,8.551,0,0,1-7.019,3.65A8.519,8.519,0,0,1-3335.243-2088.771Zm12-17.138a8.558,8.558,0,0,1-2.1-11.92,8.558,8.558,0,0,1,11.92-2.1,8.559,8.559,0,0,1,2.1,11.921,8.549,8.549,0,0,1-7.019,3.651A8.517,8.517,0,0,1-3323.242-2105.909Zm18.7-10.126a8.56,8.56,0,0,1-2.1-11.921,8.559,8.559,0,0,1,11.921-2.1,8.559,8.559,0,0,1,2.1,11.92,8.549,8.549,0,0,1-7.019,3.651A8.52,8.52,0,0,1-3304.543-2116.035Z" transform="translate(3416.221 3378.589) rotate(11)" fill="#58ffb2"/>
      </g>
    </g>
  </g>
</svg>
