<svg xmlns="http://www.w3.org/2000/svg" xmlns:xlink="http://www.w3.org/1999/xlink" width="444" height="584" viewBox="0 0 444 584">
  <defs>
    <clipPath id="clip-CodeBoardContainer">
      <rect width="444" height="584"/>
    </clipPath>
  </defs>
  <g id="CodeBoardContainer" clip-path="url(#clip-CodeBoardContainer)">
    <g id="CodeBoard" transform="translate(2.674 5)">
      <g id="CContainer" transform="translate(0)">
        <path id="CPart2" d="M0,438V39A39,39,0,0,1,39,0H399a39,39,0,0,1,39,39V438L219,545Z" transform="translate(0.326 30)" fill="#346b9a"/>
        <g id="CPart1" transform="translate(0.326)" fill="#55b0ff">
          <path d="M 218.9997253417969 519.95849609375 L 22.49997138977051 423.9515075683594 L 22.49997138977051 398.9996643066406 L 22.49997138977051 38.99966430664063 C 22.49997138977051 29.90121078491211 29.90169715881348 22.49911880493164 38.99969863891602 22.49911880493164 L 399.0006103515625 22.49911880493164 C 408.0986022949219 22.49911880493164 415.5003356933594 29.90121078491211 415.5003356933594 38.99966430664063 L 415.5003356933594 331.2477416992188 L 415.5003356933594 423.9514770507813 L 218.9997253417969 519.95849609375 Z" stroke="none"/>
          <path d="M 218.9998016357422 494.9165649414063 L 393.0002746582031 409.9027709960938 L 393.0002746582031 331.2477416992188 L 393.0002746582031 44.99908828735352 L 45.00004196166992 44.99908828735352 L 45.00004196166992 398.999755859375 L 45.00004196166992 409.9027709960938 L 218.9998016357422 494.9165649414063 M 218.9997100830078 545.0004272460938 L 4.147677827859297e-05 438.0003051757813 L 4.147677827859297e-05 398.999755859375 L 4.147677827859297e-05 38.999755859375 C 4.147677827859297e-05 17.4599781036377 17.46092987060547 -0.0009108072845265269 38.99970626831055 -0.0009108072845265269 L 399.0006103515625 -0.0009108072845265269 C 420.5393676757813 -0.0009108072845265269 438.0002746582031 17.4599781036377 438.0002746582031 38.999755859375 L 438.0002746582031 331.2477416992188 L 438.0002746582031 438.0003051757813 L 218.9997100830078 545.0004272460938 Z" stroke="none" fill="#428ac8"/>
        </g>
      </g>
      <rect id="CTextTag" width="291" height="56" rx="2" transform="translate(73.326 337)" fill="#292c32"/>
      <text id="CSubjectTag" transform="translate(219.326 378)" fill="#55b0ff" font-size="41" font-family="Bahnschrift" font-weight="700"><tspan x="-122.259" y="0">~</tspan><tspan y="0" text-decoration="underline">SCRIPTING</tspan><tspan y="0">~</tspan></text>
      <text id="CSubjectTag2" transform="translate(219.326 323)" fill="#292c32" font-size="43" font-family="Bahnschrift" font-weight="600"><tspan x="-27.137" y="0">My</tspan><tspan x="0" y="37"></tspan><tspan x="0" y="74"></tspan><tspan x="-49.519" y="111">Work</tspan></text>
      <path id="CLineDiv" d="M1522.034,1502.031h230.328" transform="translate(-1418.053 -1234.751)" fill="none" stroke="#292c32" stroke-linecap="round" stroke-width="15"/>
      <rect id="CIconCover" width="192" height="158" rx="33" transform="translate(123.326 72)" fill="#292c32"/>
      <g id="CIcon" transform="translate(157.052 106.891)">
        <path id="Path_366" data-name="Path 366" d="M1577.306,1516.279l-27.753,30.442,27.753,31.165" transform="translate(-1549.552 -1503.179)" fill="none" stroke="#55b0ff" stroke-width="15"/>
        <path id="Path_367" data-name="Path 367" d="M1549.552,1516.279l27.753,30.442-27.753,31.165" transform="translate(-1455.251 -1503.179)" fill="none" stroke="#55b0ff" stroke-width="15"/>
        <path id="Path_371" data-name="Path 371" d="M45.175,0,0,82.055" transform="matrix(0.985, -0.174, 0.174, 0.985, 31.591, 7.845)" fill="none" stroke="#55b0ff" stroke-linecap="round" stroke-width="10"/>
      </g>
    </g>
  </g>
</svg>
