<svg xmlns="http://www.w3.org/2000/svg" xmlns:xlink="http://www.w3.org/1999/xlink" width="2159" height="327" viewBox="0 0 2159 327">
  <defs>
    <clipPath id="clip-Header">
      <rect width="2159" height="327"/>
    </clipPath>
  </defs>
  <g id="Header" clip-path="url(#clip-Header)">
    <g id="Union_49" data-name="Union 49" transform="translate(6.5 7.794)" fill="#e4e4e4">
      <path d="M 2123.500244140625 288.9127197265625 L 22.500244140625 288.9127197265625 L 22.500244140625 22.4997673034668 L 2123.500244140625 22.4997673034668 L 2123.500244140625 288.9127197265625 Z" stroke="none"/>
      <path d="M 45.000244140625 44.99966430664063 L 45.000244140625 266.4128112792969 L 2101.000244140625 266.4128112792969 L 2101.000244140625 44.99966430664063 L 45.000244140625 44.99966430664063 M 12.000244140625 -0.000335693359375 L 2134.000244140625 -0.000335693359375 C 2140.627685546875 -0.000335693359375 2146.000244140625 5.37249755859375 2146.000244140625 11.99966430664063 L 2146.000244140625 299.4128112792969 C 2146.000244140625 306.0399780273438 2140.627685546875 311.4128112792969 2134.000244140625 311.4128112792969 L 12.000244140625 311.4128112792969 C 5.372802734375 311.4128112792969 0.000244140625 306.0399780273438 0.000244140625 299.4128112792969 L 0.000244140625 11.99966430664063 C 0.000244140625 5.37249755859375 5.372802734375 -0.000335693359375 12.000244140625 -0.000335693359375 Z" stroke="none" fill="#ccc"/>
    </g>
    <text id="KazabiteBoltiz" transform="translate(1079.5 189.794)" fill="#292c32" stroke="#292c32" stroke-linejoin="round" stroke-width="5" font-size="141" font-family="Blanka-Regular, Blanka" letter-spacing="0.045em"><tspan x="-581.061" y="0">KAZABITEBOLTIZ</tspan></text>
    <text id="_Portfolio_collection_" data-name="~Portfolio collection~" transform="translate(1079.5 258.794)" fill="#a3a3a3" stroke="#a3a3a3" stroke-linecap="round" stroke-linejoin="round" stroke-width="3" font-size="57" font-family="SegoeUI, Segoe UI" letter-spacing="0.363em"><tspan x="-585.138" y="0">~</tspan><tspan y="0" font-family="Blanka">PORTFOLIO COLLECTION</tspan><tspan y="0">~</tspan></text>
  </g>
</svg>
