<svg xmlns="http://www.w3.org/2000/svg" xmlns:xlink="http://www.w3.org/1999/xlink" width="444" height="584" viewBox="0 0 444 584">
  <defs>
    <clipPath id="clip-Artboard_4">
      <rect width="444" height="584"/>
    </clipPath>
  </defs>
  <g id="Artboard_4" data-name="Artboard – 4" clip-path="url(#clip-Artboard_4)">
    <g id="Group_55" data-name="Group 55" transform="translate(-983 -538.5)">
      <g id="Group_51" data-name="Group 51" transform="translate(571 58)">
        <path id="Union_52" data-name="Union 52" d="M-2225-1808v-399a39,39,0,0,1,39-39h360a39,39,0,0,1,39,39v399l-219,107Z" transform="translate(2640 2761)" fill="#a72454"/>
        <g id="Union_53" data-name="Union 53" transform="translate(2640 2731)" fill="#ff3680">
          <path d="M -2006.000122070313 -1726.0419921875 L -2202.499755859375 -1822.048950195313 L -2202.499755859375 -1846.999877929688 L -2202.499755859375 -2206.999755859375 C -2202.499755859375 -2216.09765625 -2195.09814453125 -2223.49951171875 -2186.000244140625 -2223.49951171875 L -1826.000122070313 -2223.49951171875 C -1816.902221679688 -2223.49951171875 -1809.50048828125 -2216.09765625 -1809.50048828125 -2206.999755859375 L -1809.50048828125 -1914.751831054688 L -1809.50048828125 -1822.048950195313 L -2006.000122070313 -1726.0419921875 Z" stroke="none"/>
          <path d="M -2006.000122070313 -1751.083862304688 L -1832.00048828125 -1836.09765625 L -1832.00048828125 -1914.751831054688 L -1832.00048828125 -2200.99951171875 L -2179.999755859375 -2200.99951171875 L -2179.999755859375 -1846.999877929688 L -2179.999755859375 -1836.09765625 L -2006.000122070313 -1751.083862304688 M -2006.000122070313 -1701 L -2224.999755859375 -1808.000122070313 L -2224.999755859375 -1846.999877929688 L -2224.999755859375 -2206.999755859375 C -2224.999755859375 -2228.53857421875 -2207.5390625 -2245.99951171875 -2186.000244140625 -2245.99951171875 L -1826.000122070313 -2245.99951171875 C -1804.461303710938 -2245.99951171875 -1787.00048828125 -2228.53857421875 -1787.00048828125 -2206.999755859375 L -1787.00048828125 -1914.751831054688 L -1787.00048828125 -1808.000122070313 L -2006.000122070313 -1701 Z" stroke="none" fill="#c62b64"/>
        </g>
      </g>
      <rect id="Rectangle_85" data-name="Rectangle 85" width="291" height="56" rx="2" transform="translate(1060 880)" fill="#292c32"/>
      <text id="_SFX_Music_" data-name="~SFX/Music~" transform="translate(1206 921)" fill="#ff3680" font-size="41" font-family="Bahnschrift" font-weight="700"><tspan x="-124.892" y="0">~</tspan><tspan y="0" text-decoration="underline">SFX/MUSIC</tspan><tspan y="0">~</tspan></text>
      <text id="My_Work" data-name="My

Work" transform="translate(1206 866)" fill="#292c32" font-size="43" font-family="Bahnschrift" font-weight="600"><tspan x="-27.137" y="0">My</tspan><tspan x="0" y="37"></tspan><tspan x="0" y="74"></tspan><tspan x="-49.519" y="111">Work</tspan></text>
      <path id="Path_376" data-name="Path 376" d="M1522.034,1502.031h230.328" transform="translate(-431.053 -691.75)" fill="none" stroke="#292c32" stroke-linecap="round" stroke-width="15"/>
      <rect id="Rectangle_86" data-name="Rectangle 86" width="192" height="158" rx="33" transform="translate(1110 615)" fill="#292c32"/>
      <path id="Path_377" data-name="Path 377" d="M1718.36,2621.775h41.561l13.8,13.057,14.615-32.863,18.108,56.674,24.11-80.795,22.731,80.795,16.319-56.674,13.84,32.863,13.353-13.057h57.394" transform="translate(-624 -1924.262)" fill="none" stroke="#ff3680" stroke-linecap="round" stroke-width="10"/>
    </g>
  </g>
</svg>
