<svg xmlns="http://www.w3.org/2000/svg" xmlns:xlink="http://www.w3.org/1999/xlink" width="489" height="780" viewBox="0 0 489 780">
  <defs>
    <filter id="Union_15" x="115.536" y="171.744" width="259.873" height="219.66" filterUnits="userSpaceOnUse">
      <feOffset input="SourceAlpha"/>
      <feGaussianBlur stdDeviation="5" result="blur"/>
      <feFlood/>
      <feComposite operator="in" in2="blur"/>
      <feComposite in="SourceGraphic"/>
    </filter>
    <filter id="Union_2" x="97.024" y="22.863" width="292.993" height="233.429" filterUnits="userSpaceOnUse">
      <feOffset input="SourceAlpha"/>
      <feGaussianBlur stdDeviation="5" result="blur-2"/>
      <feFlood/>
      <feComposite operator="in" in2="blur-2"/>
      <feComposite in="SourceGraphic"/>
    </filter>
    <filter id="Path_106" x="150.9" y="223.426" width="99.484" height="97.786" filterUnits="userSpaceOnUse">
      <feOffset dy="3" input="SourceAlpha"/>
      <feGaussianBlur stdDeviation="3" result="blur-3"/>
      <feFlood flood-opacity="0.49"/>
      <feComposite operator="in" in2="blur-3"/>
      <feComposite in="SourceGraphic"/>
    </filter>
    <filter id="Path_107" x="236.586" y="223.426" width="99.484" height="97.785" filterUnits="userSpaceOnUse">
      <feOffset dy="3" input="SourceAlpha"/>
      <feGaussianBlur stdDeviation="3" result="blur-4"/>
      <feFlood flood-opacity="0.49"/>
      <feComposite operator="in" in2="blur-4"/>
      <feComposite in="SourceGraphic"/>
    </filter>
    <filter id="Path_112" x="249.32" y="291.104" width="86.2" height="66.855" filterUnits="userSpaceOnUse">
      <feOffset dy="3" input="SourceAlpha"/>
      <feGaussianBlur stdDeviation="3" result="blur-5"/>
      <feFlood flood-opacity="0.49"/>
      <feComposite operator="in" in2="blur-5"/>
      <feComposite in="SourceGraphic"/>
    </filter>
    <filter id="Path_113" x="153.292" y="291.104" width="86.2" height="66.855" filterUnits="userSpaceOnUse">
      <feOffset dy="3" input="SourceAlpha"/>
      <feGaussianBlur stdDeviation="3" result="blur-6"/>
      <feFlood flood-opacity="0.49"/>
      <feComposite operator="in" in2="blur-6"/>
      <feComposite in="SourceGraphic"/>
    </filter>
    <filter id="Union_14" x="148.083" y="48.418" width="191.105" height="217.104" filterUnits="userSpaceOnUse">
      <feOffset dy="3" input="SourceAlpha"/>
      <feGaussianBlur stdDeviation="3" result="blur-7"/>
      <feFlood flood-opacity="0.49"/>
      <feComposite operator="in" in2="blur-7"/>
      <feComposite in="SourceGraphic"/>
    </filter>
    <filter id="Path_8" x="254.683" y="138.993" width="61.115" height="72.611" filterUnits="userSpaceOnUse">
      <feOffset input="SourceAlpha"/>
      <feGaussianBlur stdDeviation="5" result="blur-8"/>
      <feFlood flood-color="#00ffb9"/>
      <feComposite operator="in" in2="blur-8"/>
      <feComposite in="SourceGraphic"/>
    </filter>
    <filter id="Path_12" x="173.411" y="138.993" width="61.115" height="72.611" filterUnits="userSpaceOnUse">
      <feOffset input="SourceAlpha"/>
      <feGaussianBlur stdDeviation="5" result="blur-9"/>
      <feFlood flood-color="#00ffb9"/>
      <feComposite operator="in" in2="blur-9"/>
      <feComposite in="SourceGraphic"/>
    </filter>
    <filter id="Union_17" x="54.288" y="202.091" width="378.074" height="147.586" filterUnits="userSpaceOnUse">
      <feOffset input="SourceAlpha"/>
      <feGaussianBlur stdDeviation="5" result="blur-10"/>
      <feFlood/>
      <feComposite operator="in" in2="blur-10"/>
      <feComposite in="SourceGraphic"/>
    </filter>
    <filter id="Union_9" x="79.048" y="129.588" width="104.603" height="151.778" filterUnits="userSpaceOnUse">
      <feOffset dy="3" input="SourceAlpha"/>
      <feGaussianBlur stdDeviation="3" result="blur-11"/>
      <feFlood flood-opacity="0.49"/>
      <feComposite operator="in" in2="blur-11"/>
      <feComposite in="SourceGraphic"/>
    </filter>
    <filter id="Union_25" x="14.482" y="208.778" width="159.89" height="177.157" filterUnits="userSpaceOnUse">
      <feOffset dy="3" input="SourceAlpha"/>
      <feGaussianBlur stdDeviation="3" result="blur-12"/>
      <feFlood flood-opacity="0.49"/>
      <feComposite operator="in" in2="blur-12"/>
      <feComposite in="SourceGraphic"/>
    </filter>
    <filter id="Union_27" x="313.895" y="208.778" width="159.89" height="177.157" filterUnits="userSpaceOnUse">
      <feOffset dy="3" input="SourceAlpha"/>
      <feGaussianBlur stdDeviation="3" result="blur-13"/>
      <feFlood flood-opacity="0.49"/>
      <feComposite operator="in" in2="blur-13"/>
      <feComposite in="SourceGraphic"/>
    </filter>
    <filter id="Union_11" x="304.677" y="129.588" width="104.603" height="151.778" filterUnits="userSpaceOnUse">
      <feOffset dy="3" input="SourceAlpha"/>
      <feGaussianBlur stdDeviation="3" result="blur-14"/>
      <feFlood flood-opacity="0.49"/>
      <feComposite operator="in" in2="blur-14"/>
      <feComposite in="SourceGraphic"/>
    </filter>
    <filter id="Union_16" x="214.895" y="289.814" width="57.208" height="82.382" filterUnits="userSpaceOnUse">
      <feOffset input="SourceAlpha"/>
      <feGaussianBlur stdDeviation="5" result="blur-15"/>
      <feFlood flood-color="#00ffb9"/>
      <feComposite operator="in" in2="blur-15"/>
      <feComposite in="SourceGraphic"/>
    </filter>
    <clipPath id="clip-Web_1920_3">
      <rect width="489" height="780"/>
    </clipPath>
  </defs>
  <g id="Web_1920_3" data-name="Web 1920 – 3" clip-path="url(#clip-Web_1920_3)">
    <rect width="489" height="780" fill="#202020"/>
    <path id="Union_31" data-name="Union 31" d="M112.076,539.44l587.2-403.033,37.9,57.17L149.972,596.61ZM0,549.887,685.07,79.681l12.224,18.442L12.224,568.33ZM83.118,531.85,741.908,79.681l5.5,8.3L88.619,540.149ZM1.734,451.534,660.842,0l37.841,57.208L39.575,508.743Z" transform="translate(-161.903 -68.53)" fill="#004d38"/>
    <text id="MAGROU" transform="translate(240 469)" fill="#fff" font-size="59" font-family="PerfectDark(BRK), 'Perfect Dark (BRK)'"><tspan x="-160.038" y="0">MAGROU</tspan></text>
    <text id="THE" transform="translate(243 415)" fill="#fff" font-size="37" font-family="PerfectDark(BRK), 'Perfect Dark (BRK)'"><tspan x="-36.26" y="0">THE</tspan></text>
    <text id="Proud_Calm_and_advanced_creatures_Over_time_they_have_learnt_the_ways_of_man_and_now_possess_their_own_source_of_energy_which_they_have_evolved_into._They_fight_humans_in_herds_to_protect_ION_ore_from_harvest._" data-name="Proud, Calm and advanced creatures,Over time, they have learnt 
the ways of man and now possess 
their own source of energy which
they have evolved into.They fight humans in herds to protect 
ION ore from harvest.
" transform="translate(245 511)" fill="#fff" font-size="23" font-family="Bahnschrift"><tspan x="-187.156" y="0">Proud, Calm and advanced creatures,</tspan><tspan x="-135.653" y="33">Over time, they have learnt </tspan><tspan x="-171.523" y="66">the ways of man and now possess </tspan><tspan x="-166.009" y="99">their own source of energy which</tspan><tspan x="-112.855" y="132">they have evolved into.</tspan><tspan x="-187.161" y="165">They fight humans in herds to protect </tspan><tspan x="-107.897" y="198">ION ore from harvest.</tspan><tspan x="0" y="231"></tspan></text>
    <path id="Path_108" data-name="Path 108" d="M176.057,181.417,128.03,218.759l3.558,91.608,38.569,19.809,48.592,24.957h21.346v-167.8Z" transform="translate(4.547 7.388)" fill="#405767" stroke="#333" stroke-width="4"/>
    <g transform="matrix(1, 0, 0, 1, 0, 0)" filter="url(#Union_15)">
      <path id="Union_15-2" data-name="Union 15" d="M41.711,154.809,3.651,128.95,0,37.342,49.282,0,112.9,5.728,176.511,0l49.282,37.342-3.651,91.608-37.308,27.2-8.323,23.42-6.175-23.42-37.631,17.568H93.088L55.313,154.809,49.282,179.94Z" transform="translate(132.58 188.81)" fill="#384d5b" stroke="#333" stroke-width="4"/>
    </g>
    <g transform="matrix(1, 0, 0, 1, 0, 0)" filter="url(#Union_2)">
      <path id="Union_2-2" data-name="Union 2" d="M130.013,200.3,97.351,183.959,79.7,130.972l-28.248-5.5L45.4,98.978,0,82.482l21.69-20.5,29.76,2.5L93.821,38.992l-11.6-22L88.272,0l28.7,38.992h26.3L171.973,0l6.053,17-11.6,22L208.8,64.486l29.76-2.5,21.69,20.5-45.4,16.5L208.8,125.473l-28.248,5.5-17.654,52.987-32.668,16.389v.059l-.059-.029-.155.078Z" transform="translate(113.4 39.05)" fill="#405767" stroke="#333" stroke-linejoin="bevel" stroke-width="4"/>
    </g>
    <g transform="matrix(1, 0, 0, 1, 0, 0)" filter="url(#Path_106)">
      <g id="Path_106-2" data-name="Path 106" transform="translate(15.38 14.51)" fill="#d6d9b6" stroke-linecap="square" stroke-linejoin="bevel">
        <path d="M 208.863037109375 293.0500183105469 L 158.0407409667969 276.7841186523438 L 146.2210693359375 247.1432952880859 L 167.9395904541016 216.6789398193359 L 217.8767547607422 232.8820343017578 L 224.5085296630859 249.3370819091797 L 224.5085296630859 282.6654052734375 L 208.863037109375 293.0500183105469 Z" stroke="none"/>
        <path d="M 168.5226287841797 218.4450988769531 L 147.9174499511719 247.3477783203125 L 159.1719360351563 275.5711975097656 L 208.6339111328125 291.4017333984375 L 223.0085144042969 281.8606567382813 L 223.0085144042969 249.6279907226563 L 216.7473907470703 234.0925598144531 L 168.5226287841797 218.4450988769531 M 167.3565521240234 214.9127807617188 L 219.0061187744141 231.6714782714844 L 226.0085144042969 249.0462036132813 L 226.0085144042969 283.4700927734375 L 209.0921325683594 294.6983032226563 L 156.9095458984375 277.9970092773438 L 144.5246734619141 246.9388427734375 L 167.3565521240234 214.9127807617188 Z" stroke="none" fill="#464540"/>
      </g>
    </g>
    <g transform="matrix(1, 0, 0, 1, 0, 0)" filter="url(#Path_107)">
      <g id="Path_107-2" data-name="Path 107" transform="translate(101.06 14.51)" fill="#d6d9b6" stroke-linecap="square" stroke-linejoin="bevel">
        <path d="M 161.670166015625 293.0499572753906 L 146.024658203125 282.6653442382813 L 146.024658203125 249.3370513916016 L 152.6564331054688 232.8820190429688 L 202.5936431884766 216.6789398193359 L 224.3121337890625 247.1432647705078 L 212.492431640625 276.7840270996094 L 161.670166015625 293.0499572753906 Z" stroke="none"/>
        <path d="M 202.0105895996094 218.4450988769531 L 153.7857971191406 234.0925598144531 L 147.524658203125 249.6279296875 L 147.524658203125 281.860595703125 L 161.8992767333984 291.4016723632813 L 211.3612365722656 275.5711059570313 L 222.6157379150391 247.3477172851563 L 202.0105895996094 218.4450988769531 M 203.1766662597656 214.9127807617188 L 226.0085144042969 246.9387817382813 L 213.6236267089844 277.9969177246094 L 161.4410705566406 294.6982421875 L 144.524658203125 283.4700622558594 L 144.524658203125 249.046142578125 L 151.5270690917969 231.6714782714844 L 203.1766662597656 214.9127807617188 Z" stroke="none" fill="#464540"/>
      </g>
    </g>
    <g transform="matrix(1, 0, 0, 1, 0, 0)" filter="url(#Path_112)">
      <g id="Path_112-2" data-name="Path 112" transform="matrix(0.99, -0.1, 0.1, 0.99, 258.32, 303.81)" fill="#d6d9b6" stroke-linecap="square" stroke-linejoin="bevel">
        <path d="M 13.47601318359375 40.81504821777344 L 1.499996662139893 35.4487419128418 L 1.499996662139893 18.54669570922852 L 6.465444564819336 10.22920703887939 L 45.69930648803711 1.635183691978455 L 62.22101593017578 17.28031921386719 L 53.41703033447266 32.18507385253906 L 13.47601318359375 40.81504821777344 Z" stroke="none"/>
        <path d="M 45.24454498291016 3.270359039306641 L 7.420600891113281 11.55554962158203 L 2.999996185302734 18.96038818359375 L 2.999996185302734 34.47717666625977 L 13.64026641845703 39.24494552612305 L 52.45911026000977 30.85744285583496 L 60.32125854492188 17.54717063903809 L 45.24454498291016 3.270359039306641 M 46.1540641784668 -3.814697265625e-06 L 64.12077331542969 17.01347541809082 L 54.37495422363281 33.51271820068359 L 13.31176376342773 42.38515472412109 L 0 36.42031860351563 L 0 18.13300895690918 L 5.510288238525391 8.902862548828125 L 46.1540641784668 -3.814697265625e-06 Z" stroke="none" fill="#464540"/>
      </g>
    </g>
    <g transform="matrix(1, 0, 0, 1, 0, 0)" filter="url(#Path_113)">
      <g id="Path_113-2" data-name="Path 113" transform="matrix(-0.99, -0.1, 0.1, -0.99, 226.06, 345.96)" fill="#d6d9b6" stroke-linecap="square" stroke-linejoin="bevel">
        <path d="M 45.69929504394531 40.74997711181641 L 6.465449810028076 32.15593719482422 L 1.500002861022949 23.83846664428711 L 1.500002861022949 6.936408996582031 L 13.4760103225708 1.570104002952576 L 53.41701889038086 10.20006847381592 L 62.22100448608398 25.10482406616211 L 45.69929504394531 40.74997711181641 Z" stroke="none"/>
        <path d="M 45.24454116821289 39.11479568481445 L 60.32125473022461 24.83798217773438 L 52.4590950012207 11.5277099609375 L 13.64028263092041 3.140209436416626 L 3.000005006790161 7.907991409301758 L 3.000005006790161 23.4247932434082 L 7.420592308044434 30.82958793640137 L 45.24454116821289 39.11479568481445 M 46.15406036376953 42.38515472412109 L 5.510293960571289 33.48227691650391 L 5.065239747636952e-06 24.25215530395508 L 5.065239747636952e-06 5.964844226837158 L 13.31177139282227 -4.157172384111618e-07 L 54.37493896484375 8.872432708740234 L 64.12077331542969 25.37167739868164 L 46.15406036376953 42.38515472412109 Z" stroke="none" fill="#464540"/>
      </g>
    </g>
    <g transform="matrix(1, 0, 0, 1, 0, 0)" filter="url(#Union_14)">
      <path id="Union_14-2" data-name="Union 14" d="M28.229,168.661,24.235,127.2l-.125-1.3-1.044-.783-10.093-7.569,3.659-27.079,10.076-5.055,1.629-.818V70.209l-.8-.854L0,40.009l2.494-5.159L23.329,54.977l5.007,4.837V47.1L27.7,46.3.633,12.106,16.372,0,37.445,14.05l.745.5H56.18L82.723,39.615l2.028,1.916,2.029-1.916,26.543-25.069h17.99l.745-.5L153.132,0l15.739,12.107L141.8,46.3l-.638.806V59.814l5.007-4.837,20.836-20.126,2.494,5.159L141.966,69.355l-.8.854V84.593l1.63.818,10.076,5.055,3.659,27.079-10.093,7.569-1.044.783-.125,1.3-4,41.465-25.045,27.43,2.919-23.458,4.493-23.465.283-1.481-1.033-1.1-8.588-9.136-1.294-1.377-1.794.6-1.4.467-.394,6.757-2.675,11.945-5.122,4.821,1.167-9.144.137-12.084-18.174,6.059L67.081,139.6l.135,11.915,1.167,9.144-5.122-4.821L60.587,143.9l-.384-6.586-1.914-.638-1.792-.6-1.3,1.377-8.589,9.136-1.033,1.1.283,1.481,4.494,23.465,2.919,23.46Z" transform="translate(158.88 56.08)" fill="#d6d9b6" stroke="#464540" stroke-linecap="square" stroke-linejoin="bevel" stroke-width="4"/>
    </g>
    <path id="Path_10" data-name="Path 10" d="M171.357,161.569l10.563-7.922,17.385-7.482L196,163.549l-4.84,2.388,4.84,7.7-4.71,15.767-1.311-2.865,1.181-12.9L187.4,167.8l-7.9,3.9-8.142-1.54-2.2-6.6Z" transform="translate(101.001 8.288)" fill="none" stroke="#464540" stroke-linejoin="bevel" stroke-width="4"/>
    <path id="Path_11" data-name="Path 11" d="M197.1,161.569l-10.563-7.922-17.385-7.482,3.3,17.385,4.84,2.388-4.84,7.7,4.71,15.767,1.311-2.865-1.181-12.9,3.768-5.837,7.9,3.9,8.142-1.54,2.2-6.6Z" transform="translate(19.746 8.288)" fill="none" stroke="#464540" stroke-linejoin="bevel" stroke-width="4"/>
    <path id="Union_6" data-name="Union 6" d="M17.757,0l7.722,17.871-2.675,1.2,2.675,3.353v4.071H22.8l8.47,9.782L17.757,41.319ZM0,36.707l5.358-10.85L9.989,24.1l-.56-6.387L6.636,14.757,13.276,0V41.319Z" transform="translate(228.635 147.486)" fill="#969881" stroke="#464540" stroke-linejoin="bevel" stroke-width="2"/>
    <path id="Path_14" data-name="Path 14" d="M189,167.943l-6.905-11.011V144.721a22.57,22.57,0,0,1-4.182,1.965c-1.493.373-2.942.8-2.942.8v11.948l7.124,11.124" transform="translate(97.866 -10.129)" fill="#969881" stroke="#464540" stroke-linejoin="bevel" stroke-width="2"/>
    <path id="Path_18" data-name="Path 18" d="M174.968,167.943l6.905-11.011V144.721a22.569,22.569,0,0,0,4.182,1.965c1.493.373,2.942.8,2.942.8v11.948l-7.124,11.124" transform="translate(26.84 -10.129)" fill="#969881" stroke="#464540" stroke-linejoin="bevel" stroke-width="2"/>
    <g transform="matrix(1, 0, 0, 1, 0, 0)" filter="url(#Path_8)">
      <path id="Path_8-2" data-name="Path 8" d="M171.357,161.569l10.563-7.922,17.385-7.482L196,163.549l-4.84,2.388,4.84,7.7-4.84,14.524V173.633L187.4,167.8l-7.9,3.9-8.142-1.54-2.2-6.6Z" transform="translate(101 8.29)" fill="#00ffb9" stroke="#00e8d0" stroke-linejoin="bevel" stroke-width="1"/>
    </g>
    <g transform="matrix(1, 0, 0, 1, 0, 0)" filter="url(#Path_12)">
      <path id="Path_12-2" data-name="Path 12" d="M197.1,161.569l-10.563-7.922-17.385-7.482,3.3,17.385,4.84,2.388-4.84,7.7,4.84,14.524V173.633l3.768-5.837,7.9,3.9,8.142-1.54,2.2-6.6Z" transform="translate(19.75 8.29)" fill="#00ffb9" stroke="#00e8d0" stroke-linejoin="bevel" stroke-width="1"/>
    </g>
    <g id="Path_15" data-name="Path 15" transform="translate(249.243 101.025)" fill="#969881" stroke-linejoin="bevel">
      <path d="M 23.16205978393555 44.82411575317383 C 20.23703956604004 44.82411575317383 17.40031051635742 44.2515869140625 14.73066997528076 43.12241744995117 C 12.1513500213623 42.03145599365234 9.834559440612793 40.46933746337891 7.844669818878174 38.47944641113281 C 5.854779720306396 36.48955535888672 4.292659759521484 34.17276763916016 3.201699733734131 31.59344673156738 C 2.072529792785645 28.92380523681641 1.499999761581421 26.08707618713379 1.499999761581421 23.16205596923828 C 1.499999761581421 20.23703575134277 2.072529792785645 17.40030670166016 3.201699733734131 14.7306661605835 C 4.292659759521484 12.15134620666504 5.854779720306396 9.834566116333008 7.844669818878174 7.84467601776123 C 9.834559440612793 5.854785919189453 12.1513500213623 4.292665958404541 14.73066997528076 3.201705932617188 C 17.40031051635742 2.072535991668701 20.23703956604004 1.500005960464478 23.16205978393555 1.500005960464478 C 25.48786926269531 1.500005960464478 27.6558895111084 1.859395980834961 30.19169998168945 2.665286064147949 C 34.26467895507813 3.946846008300781 37.96059799194336 6.638845920562744 40.60276031494141 10.24668598175049 C 41.94070816040039 12.07363605499268 42.98268127441406 14.0877161026001 43.69974136352539 16.23296546936035 C 44.44581985473633 18.4650764465332 44.82411956787109 20.79635620117188 44.82411956787109 23.16205596923828 C 44.82411956787109 26.08707618713379 44.25159072875977 28.92380523681641 43.12242126464844 31.59344673156738 C 42.03145980834961 34.17276763916016 40.46934127807617 36.48955535888672 38.47945022583008 38.47944641113281 C 36.48955917358398 40.46933746337891 34.17277145385742 42.03145599365234 31.59345054626465 43.12241744995117 C 28.92380905151367 44.2515869140625 26.08708000183105 44.82411575317383 23.16205978393555 44.82411575317383 Z" stroke="none"/>
      <path d="M 23.16205978393555 2.999996185302734 C 17.77657890319824 2.999996185302734 12.71343994140625 5.097217559814453 8.905330657958984 8.905326843261719 C 5.097221374511719 12.71343612670898 3 17.77657508850098 3 23.16205596923828 C 3 28.54753684997559 5.097221374511719 33.61066436767578 8.905330657958984 37.41877746582031 C 12.71343994140625 41.22688674926758 17.77657890319824 43.32410430908203 23.16205978393555 43.32410430908203 C 28.54754066467285 43.32410430908203 33.61067962646484 41.22688674926758 37.41878890991211 37.41877746582031 C 41.22689819335938 33.61066436767578 43.32411956787109 28.54753684997559 43.32411956787109 23.16205596923828 C 43.32411956787109 20.95829582214355 42.97185134887695 18.78700637817383 42.277099609375 16.70848655700684 C 41.60927963256836 14.71050643920898 40.63877868652344 12.83462524414063 39.392578125 11.1329460144043 C 36.93787002563477 7.78106689453125 33.5118408203125 5.282466888427734 29.7455997467041 4.097427368164063 L 29.73737907409668 4.094837188720703 C 27.35487937927246 3.337654113769531 25.32696914672852 2.999996185302734 23.16205978393555 2.999996185302734 M 23.16205978393555 -3.814697265625e-06 C 25.59255027770996 -3.814697265625e-06 27.93560028076172 0.3743553161621094 30.64601898193359 1.235744476318359 C 39.52035140991211 4.028034210205078 46.32411956787109 12.80049514770508 46.32411956787109 23.16205596923828 C 46.32411956787109 35.95409393310547 35.95410919189453 46.32410430908203 23.16205978393555 46.32410430908203 C 10.37001037597656 46.32410430908203 0 35.95409393310547 0 23.16205596923828 C 0 10.3700065612793 10.37001037597656 -3.814697265625e-06 23.16205978393555 -3.814697265625e-06 Z" stroke="none" fill="#464540"/>
    </g>
    <g id="Path_19" data-name="Path 19" transform="translate(193.104 101.025)" fill="#969881" stroke-linejoin="bevel">
      <path d="M 23.16205978393555 44.82411575317383 C 20.23703956604004 44.82411575317383 17.40031051635742 44.2515869140625 14.73066997528076 43.12241744995117 C 12.1513500213623 42.03145599365234 9.834559440612793 40.46933746337891 7.844669818878174 38.47944641113281 C 5.854779720306396 36.48955535888672 4.292659759521484 34.17276763916016 3.201699733734131 31.59344673156738 C 2.072529792785645 28.92380523681641 1.499999761581421 26.08707618713379 1.499999761581421 23.16205596923828 C 1.499999761581421 20.79635620117188 1.878299832344055 18.4650764465332 2.624379873275757 16.23296546936035 C 3.341439723968506 14.0877161026001 4.383409976959229 12.07363605499268 5.721359729766846 10.24668598175049 C 8.363519668579102 6.638845920562744 12.05943965911865 3.946846008300781 16.12830924987793 2.666585922241211 C 18.6682300567627 1.859395980834961 20.83625030517578 1.500005960464478 23.16205978393555 1.500005960464478 C 26.08708000183105 1.500005960464478 28.92380905151367 2.072535991668701 31.59345054626465 3.201705932617188 C 34.17277145385742 4.292665958404541 36.48955917358398 5.854785919189453 38.47945022583008 7.84467601776123 C 40.46934127807617 9.834566116333008 42.03145980834961 12.15134620666504 43.12242126464844 14.7306661605835 C 44.25159072875977 17.40030670166016 44.82411956787109 20.23703575134277 44.82411956787109 23.16205596923828 C 44.82411956787109 26.08707618713379 44.25159072875977 28.92380523681641 43.12242126464844 31.59344673156738 C 42.03145980834961 34.17276763916016 40.46934127807617 36.48955535888672 38.47945022583008 38.47944641113281 C 36.48955917358398 40.46933746337891 34.17277145385742 42.03145599365234 31.59345054626465 43.12241744995117 C 28.92380905151367 44.2515869140625 26.08708000183105 44.82411575317383 23.16205978393555 44.82411575317383 Z" stroke="none"/>
      <path d="M 23.16205978393555 2.999996185302734 C 20.99715042114258 2.999996185302734 18.96924018859863 3.337654113769531 16.58674049377441 4.094837188720703 L 16.57851982116699 4.097427368164063 C 12.81227874755859 5.282466888427734 9.386249542236328 7.78106689453125 6.931541442871094 11.1329460144043 C 5.685340881347656 12.83462524414063 4.714839935302734 14.71050643920898 4.047008514404297 16.70848655700684 C 3.352268218994141 18.78700637817383 3 20.95829582214355 3 23.16205596923828 C 3 28.54753684997559 5.097221374511719 33.61066436767578 8.905330657958984 37.41877746582031 C 12.71343994140625 41.22688674926758 17.77657890319824 43.32410430908203 23.16205978393555 43.32410430908203 C 28.54754066467285 43.32410430908203 33.61067962646484 41.22688674926758 37.41878890991211 37.41877746582031 C 41.22689819335938 33.61066436767578 43.32411956787109 28.54753684997559 43.32411956787109 23.16205596923828 C 43.32411956787109 17.77657508850098 41.22689819335938 12.71343612670898 37.41878890991211 8.905326843261719 C 33.61067962646484 5.097217559814453 28.54754066467285 2.999996185302734 23.16205978393555 2.999996185302734 M 23.16205978393555 -3.814697265625e-06 C 35.95410919189453 -3.814697265625e-06 46.32411956787109 10.3700065612793 46.32411956787109 23.16205596923828 C 46.32411956787109 35.95409393310547 35.95410919189453 46.32410430908203 23.16205978393555 46.32410430908203 C 10.37001037597656 46.32410430908203 0 35.95409393310547 0 23.16205596923828 C 0 12.80049514770508 6.803760528564453 4.028034210205078 15.6781005859375 1.235744476318359 C 18.38851928710938 0.3743553161621094 20.73156929016113 -3.814697265625e-06 23.16205978393555 -3.814697265625e-06 Z" stroke="none" fill="#464540"/>
    </g>
    <g id="Path_17" data-name="Path 17" transform="translate(256.37 108.152)" fill="#4d4a3e" stroke-linejoin="bevel">
      <path d="M 15.27652359008789 29.55304145812988 C 11.4631233215332 29.55304145812988 7.877973556518555 28.06802177429199 5.181503772735596 25.37154197692871 C 2.485023498535156 22.67507171630859 1.000003576278687 19.08992195129395 1.000003576278687 15.27652168273926 C 1.000003576278687 11.46312141418457 2.485023498535156 7.877971649169922 5.181503772735596 5.181501865386963 C 7.877973556518555 2.485021591186523 11.4631233215332 1.000001668930054 15.27652359008789 1.000001668930054 C 16.8093433380127 1.000001668930054 18.2382640838623 1.236881732940674 19.90968322753906 1.768061637878418 C 22.59389305114746 2.612651586532593 25.02961349487305 4.386781692504883 26.77091407775879 6.764501571655273 C 28.59099388122559 9.249812126159668 29.55304336547852 12.19322204589844 29.55304336547852 15.27652168273926 C 29.55304336547852 19.08992195129395 28.06802368164063 22.67507171630859 25.37154388427734 25.37154197692871 C 22.67507362365723 28.06802177429199 19.08992385864258 29.55304145812988 15.27652359008789 29.55304145812988 Z" stroke="none"/>
      <path d="M 15.27652359008789 2.000001907348633 C 11.73023414611816 2.000001907348633 8.396213531494141 3.381002426147461 5.888603210449219 5.888601303100586 C 3.381004333496094 8.396211624145508 2.000003814697266 11.73023223876953 2.000003814697266 15.27652168273926 C 2.000003814697266 18.82280158996582 3.381004333496094 22.15683174133301 5.888603210449219 24.66443252563477 C 8.396213531494141 27.17204093933105 11.73023414611816 28.55304145812988 15.27652359008789 28.55304145812988 C 18.82281494140625 28.55304145812988 22.15683364868164 27.17204093933105 24.66444396972656 24.66443252563477 C 27.17204284667969 22.15683174133301 28.55304336547852 18.82280158996582 28.55304336547852 15.27652168273926 C 28.55304336547852 12.40715217590332 27.65781402587891 9.668062210083008 25.9641227722168 7.355340957641602 C 24.34779357910156 5.148262023925781 22.09199333190918 3.503061294555664 19.61228370666504 2.722822189331055 L 19.60680389404297 2.721092224121094 C 18.03763389587402 2.222391128540039 16.70212364196777 2.000001907348633 15.27652359008789 2.000001907348633 M 15.27652359008789 1.9073486328125e-06 C 16.87955474853516 1.9073486328125e-06 18.42491340637207 0.2469024658203125 20.21256256103516 0.8150310516357422 C 26.06562423706055 2.656692504882813 30.55304336547852 8.442562103271484 30.55304336547852 15.27652168273926 C 30.55304336547852 23.7135009765625 23.7135124206543 30.55304145812988 15.27652359008789 30.55304145812988 C 6.839532852172852 30.55304145812988 3.814697265625e-06 23.7135009765625 3.814697265625e-06 15.27652168273926 C 3.814697265625e-06 6.839530944824219 6.839532852172852 1.9073486328125e-06 15.27652359008789 1.9073486328125e-06 Z" stroke="none" fill="#464540"/>
    </g>
    <g id="Path_105" data-name="Path 105" transform="translate(256.37 108.152)" fill="#405767" stroke-linejoin="bevel">
      <path d="M 15.27652359008789 29.55304145812988 C 11.4631233215332 29.55304145812988 7.877973556518555 28.06802177429199 5.181503772735596 25.37154197692871 C 2.485023498535156 22.67507171630859 1.000003576278687 19.08992195129395 1.000003576278687 15.27652168273926 C 1.000003576278687 11.46312141418457 2.485023498535156 7.877971649169922 5.181503772735596 5.181501865386963 C 7.877973556518555 2.485021591186523 11.4631233215332 1.000001668930054 15.27652359008789 1.000001668930054 C 16.8093433380127 1.000001668930054 18.2382640838623 1.236881732940674 19.90968322753906 1.768061637878418 C 22.59389305114746 2.612651586532593 25.02961349487305 4.386781692504883 26.77091407775879 6.764501571655273 C 28.59099388122559 9.249812126159668 29.55304336547852 12.19322204589844 29.55304336547852 15.27652168273926 C 29.55304336547852 19.08992195129395 28.06802368164063 22.67507171630859 25.37154388427734 25.37154197692871 C 22.67507362365723 28.06802177429199 19.08992385864258 29.55304145812988 15.27652359008789 29.55304145812988 Z" stroke="none"/>
      <path d="M 15.27652359008789 2.000001907348633 C 11.73023414611816 2.000001907348633 8.396213531494141 3.381002426147461 5.888603210449219 5.888601303100586 C 3.381004333496094 8.396211624145508 2.000003814697266 11.73023223876953 2.000003814697266 15.27652168273926 C 2.000003814697266 18.82280158996582 3.381004333496094 22.15683174133301 5.888603210449219 24.66443252563477 C 8.396213531494141 27.17204093933105 11.73023414611816 28.55304145812988 15.27652359008789 28.55304145812988 C 18.82281494140625 28.55304145812988 22.15683364868164 27.17204093933105 24.66444396972656 24.66443252563477 C 27.17204284667969 22.15683174133301 28.55304336547852 18.82280158996582 28.55304336547852 15.27652168273926 C 28.55304336547852 12.40715217590332 27.65781402587891 9.668062210083008 25.9641227722168 7.355340957641602 C 24.34779357910156 5.148262023925781 22.09199333190918 3.503061294555664 19.61228370666504 2.722822189331055 L 19.60680389404297 2.721092224121094 C 18.03763389587402 2.222391128540039 16.70212364196777 2.000001907348633 15.27652359008789 2.000001907348633 M 15.27652359008789 1.9073486328125e-06 C 16.87955474853516 1.9073486328125e-06 18.42491340637207 0.2469024658203125 20.21256256103516 0.8150310516357422 C 26.06562423706055 2.656692504882813 30.55304336547852 8.442562103271484 30.55304336547852 15.27652168273926 C 30.55304336547852 23.7135009765625 23.7135124206543 30.55304145812988 15.27652359008789 30.55304145812988 C 6.839532852172852 30.55304145812988 3.814697265625e-06 23.7135009765625 3.814697265625e-06 15.27652168273926 C 3.814697265625e-06 6.839530944824219 6.839532852172852 1.9073486328125e-06 15.27652359008789 1.9073486328125e-06 Z" stroke="none" fill="#333"/>
    </g>
    <g id="Path_20" data-name="Path 20" transform="translate(201.748 108.152)" fill="#405767" stroke-linejoin="bevel">
      <path d="M 15.27652359008789 29.55304145812988 C 11.4631233215332 29.55304145812988 7.877973556518555 28.06802177429199 5.181503772735596 25.37154197692871 C 2.485023498535156 22.67507171630859 1.000003576278687 19.08992195129395 1.000003576278687 15.27652168273926 C 1.000003576278687 12.19322204589844 1.962053537368774 9.249812126159668 3.78213357925415 6.764501571655273 C 5.523433685302734 4.386781692504883 7.959153652191162 2.612651586532593 10.64062404632568 1.768921732902527 C 12.31478404998779 1.236881732940674 13.74370384216309 1.000001668930054 15.27652359008789 1.000001668930054 C 19.08992385864258 1.000001668930054 22.67507362365723 2.485021591186523 25.37154388427734 5.181501865386963 C 28.06802368164063 7.877971649169922 29.55304336547852 11.46312141418457 29.55304336547852 15.27652168273926 C 29.55304336547852 19.08992195129395 28.06802368164063 22.67507171630859 25.37154388427734 25.37154197692871 C 22.67507362365723 28.06802177429199 19.08992385864258 29.55304145812988 15.27652359008789 29.55304145812988 Z" stroke="none"/>
      <path d="M 15.27652359008789 2.000001907348633 C 13.85092353820801 2.000001907348633 12.51541328430176 2.222391128540039 10.94624328613281 2.721092224121094 L 10.94076347351074 2.722822189331055 C 8.461053848266602 3.503061294555664 6.205253601074219 5.148262023925781 4.588924407958984 7.355340957641602 C 2.895233154296875 9.668062210083008 2.000003814697266 12.40715217590332 2.000003814697266 15.27652168273926 C 2.000003814697266 18.82280158996582 3.381004333496094 22.15683174133301 5.888603210449219 24.66443252563477 C 8.396213531494141 27.17204093933105 11.73023414611816 28.55304145812988 15.27652359008789 28.55304145812988 C 18.82281494140625 28.55304145812988 22.15683364868164 27.17204093933105 24.66444396972656 24.66443252563477 C 27.17204284667969 22.15683174133301 28.55304336547852 18.82280158996582 28.55304336547852 15.27652168273926 C 28.55304336547852 11.73023223876953 27.17204284667969 8.396211624145508 24.66444396972656 5.888601303100586 C 22.15683364868164 3.381002426147461 18.82281494140625 2.000001907348633 15.27652359008789 2.000001907348633 M 15.27652359008789 1.9073486328125e-06 C 23.7135124206543 1.9073486328125e-06 30.55304336547852 6.839530944824219 30.55304336547852 15.27652168273926 C 30.55304336547852 23.7135009765625 23.7135124206543 30.55304145812988 15.27652359008789 30.55304145812988 C 6.839532852172852 30.55304145812988 3.814697265625e-06 23.7135009765625 3.814697265625e-06 15.27652168273926 C 3.814697265625e-06 8.442562103271484 4.487422943115234 2.656692504882813 10.34048271179199 0.8150310516357422 C 12.12813377380371 0.2469024658203125 13.67349433898926 1.9073486328125e-06 15.27652359008789 1.9073486328125e-06 Z" stroke="none" fill="#333"/>
    </g>
    <path id="Path_21" data-name="Path 21" d="M184.012,138.708l-16.775-20.13L157.3,106.65l1.259-6.954" transform="translate(18.517 -31.622)" fill="none" stroke="#464540" stroke-linejoin="bevel" stroke-width="2"/>
    <path id="Path_25" data-name="Path 25" d="M157.3,138.708l16.775-20.13,9.941-11.929L182.753,99.7" transform="translate(128.238 -31.622)" fill="none" stroke="#464540" stroke-linejoin="bevel" stroke-width="2"/>
    <path id="Path_22" data-name="Path 22" d="M163.031,113.023l7.894-2.631,16.314,20.524H193.2l-13.157-17.191v-5.789h4.912l18.77,24.208,1.012-5.681,6.477-.675L199.168,114.6h-9.577" transform="translate(21.255 -27.688)" fill="none" stroke="#464540" stroke-linejoin="bevel" stroke-width="2"/>
    <path id="Path_24" data-name="Path 24" d="M211.219,113.023l-7.894-2.631L187.01,130.916h-5.964L194.2,113.724v-5.789h-4.912l-18.77,24.208-1.012-5.681-6.477-.675,12.05-11.187h9.577" transform="translate(92.56 -27.688)" fill="none" stroke="#464540" stroke-linejoin="bevel" stroke-width="2"/>
    <path id="Path_23" data-name="Path 23" d="M181.417,115.514l-8.5-11.386-12.851,4.441" transform="translate(19.837 -29.506)" fill="none" stroke="#464540" stroke-linejoin="bevel" stroke-width="2"/>
    <path id="Path_26" data-name="Path 26" d="M160.062,115.514l8.5-11.386,12.851,4.441" transform="translate(126.748 -29.506)" fill="none" stroke="#464540" stroke-linejoin="bevel" stroke-width="2"/>
    <path id="Path_27" data-name="Path 27" d="M120.476,138.267l7.961-7.287" transform="translate(0.941 -16.688)" fill="none" stroke="#333" stroke-width="1"/>
    <path id="Union_7" data-name="Union 7" d="M34.554,13.3l-7.962,7.286ZM31.6,11.819l-7.962,7.286Zm-2.956-1.477-7.96,7.286ZM25.69,8.865l-7.962,7.286ZM22.735,7.387l-7.962,7.286ZM19.781,5.909,11.819,13.2ZM16.825,4.432l-7.96,7.288ZM13.871,2.954,5.909,10.242ZM10.916,1.477,2.954,8.764ZM7.962,0,0,7.286Z" transform="matrix(0.978, -0.208, 0.208, 0.978, 211.251, 187.545)" fill="none" stroke="#464540" stroke-linejoin="bevel" stroke-width="1"/>
    <path id="Union_8" data-name="Union 8" d="M30.122,11.387l-6.941,6.24Zm-2.575-1.265-6.941,6.24ZM24.97,8.857,18.031,15.1ZM22.394,7.592l-6.941,6.24ZM19.819,6.327l-6.941,6.24ZM17.244,5.061,10.3,11.3ZM14.667,3.8,7.728,10.037ZM12.091,2.53,5.151,8.772ZM9.516,1.265,2.575,7.505ZM6.941,0,0,6.24Z" transform="translate(188.028 216.851) rotate(20)" fill="none" stroke="#464540" stroke-linejoin="bevel" stroke-width="1"/>
    <path id="Union_18" data-name="Union 18" d="M22.395,7.592l-6.941,6.24ZM19.819,6.326l-6.941,6.241ZM17.244,5.061,10.3,11.3ZM14.667,3.8l-6.939,6.24ZM12.092,2.53,5.151,8.771ZM9.516,1.266,2.575,7.506ZM6.941,0,0,6.241Z" transform="translate(173.94 284.791) rotate(-10)" fill="none" stroke="#464540" stroke-linejoin="bevel" stroke-width="1"/>
    <path id="Union_22" data-name="Union 22" d="M22.395,7.592l-6.941,6.24ZM19.819,6.326l-6.941,6.241ZM17.244,5.061,10.3,11.3ZM14.667,3.8l-6.939,6.24ZM12.092,2.53,5.151,8.771ZM9.516,1.266,2.575,7.506ZM6.941,0,0,6.241Z" transform="translate(172.462 323.202) rotate(-10)" fill="none" stroke="#464540" stroke-linejoin="bevel" stroke-width="1"/>
    <path id="Union_19" data-name="Union 19" d="M22.395,7.592l-6.941,6.24ZM19.819,6.326l-6.941,6.241ZM17.244,5.061,10.3,11.3ZM14.667,3.8l-6.939,6.24ZM12.092,2.53,5.151,8.771ZM9.516,1.266,2.575,7.506ZM6.941,0,0,6.241Z" transform="translate(193.145 290.701) rotate(-10)" fill="none" stroke="#464540" stroke-linejoin="bevel" stroke-width="1"/>
    <path id="Union_23" data-name="Union 23" d="M22.395,7.592l-6.941,6.24ZM19.819,6.326l-6.941,6.241ZM17.244,5.061,10.3,11.3ZM14.667,3.8l-6.939,6.24ZM12.092,2.53,5.151,8.771ZM9.516,1.266,2.575,7.506ZM6.941,0,0,6.241Z" transform="translate(191.668 329.112) rotate(-10)" fill="none" stroke="#464540" stroke-linejoin="bevel" stroke-width="1"/>
    <path id="Union_21" data-name="Union 21" d="M17.244,5.061,10.3,11.3ZM14.667,3.8l-6.939,6.24ZM12.092,2.53,5.151,8.771ZM9.516,1.266,2.575,7.506ZM6.941,0,0,6.241Z" transform="translate(212.351 296.61) rotate(-10)" fill="none" stroke="#464540" stroke-linejoin="bevel" stroke-width="1"/>
    <path id="Union_29" data-name="Union 29" d="M19.515,6.618l-6.941,6.241ZM16.938,5.353,10,11.593ZM14.363,4.087,7.422,10.328ZM11.787,2.823,4.846,9.063ZM9.212,1.557,2.271,7.8ZM6.939,0,0,6.24Z" transform="translate(247.619 292.377) rotate(-2)" fill="#fff" stroke="#464540" stroke-linejoin="bevel" stroke-width="1"/>
    <path id="Union_30" data-name="Union 30" d="M17.244,5.061,10.3,11.3ZM14.667,3.8l-6.939,6.24ZM12.092,2.53,5.151,8.771ZM9.516,1.266,2.575,7.506ZM6.941,0,0,6.241Z" transform="translate(263.239 330.788) rotate(-2)" fill="none" stroke="#464540" stroke-linejoin="bevel" stroke-width="1"/>
    <path id="Union_24" data-name="Union 24" d="M9.516,1.266,2.575,7.506ZM6.941,0,0,6.241Z" transform="translate(210.873 335.021) rotate(-10)" fill="none" stroke="#464540" stroke-linejoin="bevel" stroke-width="1"/>
    <path id="Path_47" data-name="Path 47" d="M120.476,138.267l7.961-7.287" transform="translate(95.492 89.682)" fill="none" stroke="#333" stroke-width="1"/>
    <path id="Path_31" data-name="Path 31" d="M120.476,138.267l7.961-7.287" transform="translate(6.851 -13.733)" fill="none" stroke="#333" stroke-width="1"/>
    <path id="Path_45" data-name="Path 45" d="M120.476,138.267l7.961-7.287" transform="translate(101.401 92.636)" fill="none" stroke="#333" stroke-width="1"/>
    <path id="Path_33" data-name="Path 33" d="M120.476,138.267l7.961-7.287" transform="translate(12.76 -10.778)" fill="none" stroke="#333" stroke-width="1"/>
    <path id="Path_43" data-name="Path 43" d="M120.476,138.267l7.961-7.287" transform="translate(107.311 95.591)" fill="none" stroke="#333" stroke-width="1"/>
    <path id="Path_35" data-name="Path 35" d="M120.476,138.267l7.961-7.287" transform="translate(18.669 -7.824)" fill="none" stroke="#333" stroke-width="1"/>
    <path id="Path_41" data-name="Path 41" d="M120.476,138.267l7.961-7.287" transform="translate(113.22 98.546)" fill="none" stroke="#333" stroke-width="1"/>
    <path id="Path_37" data-name="Path 37" d="M120.476,138.267l7.961-7.287" transform="translate(24.579 -4.869)" fill="none" stroke="#333" stroke-width="1"/>
    <path id="Path_39" data-name="Path 39" d="M120.476,138.267l7.961-7.287" transform="translate(119.129 101.5)" fill="none" stroke="#333" stroke-width="1"/>
    <path id="Path_30" data-name="Path 30" d="M120.476,138.267l7.961-7.287" transform="translate(-2.013 -18.165)" fill="none" stroke="#333" stroke-width="1"/>
    <path id="Path_48" data-name="Path 48" d="M120.476,138.267l7.961-7.287" transform="translate(92.537 88.204)" fill="none" stroke="#333" stroke-width="1"/>
    <path id="Path_32" data-name="Path 32" d="M120.476,138.267l7.961-7.287" transform="translate(3.896 -15.21)" fill="none" stroke="#333" stroke-width="1"/>
    <path id="Path_208" data-name="Path 208" d="M165.554,230.34l-11.878,7.479L149.937,253,155,259.375Z" transform="translate(156.795 32.219)" fill="#969881" stroke="#464540" stroke-width="2"/>
    <path id="Path_209" data-name="Path 209" d="M172.026,243.542l-14.057-18.277,2.083-6.768" transform="translate(138.456 26.565)" fill="none" stroke="#464540" stroke-width="2"/>
    <path id="Path_46" data-name="Path 46" d="M120.476,138.267l7.961-7.287" transform="translate(98.446 91.159)" fill="none" stroke="#333" stroke-width="1"/>
    <path id="Path_34" data-name="Path 34" d="M120.476,138.267l7.961-7.287" transform="translate(9.805 -12.256)" fill="none" stroke="#333" stroke-width="1"/>
    <path id="Path_44" data-name="Path 44" d="M120.476,138.267l7.961-7.287" transform="translate(104.356 94.114)" fill="none" stroke="#333" stroke-width="1"/>
    <path id="Path_36" data-name="Path 36" d="M120.476,138.267l7.961-7.287" transform="translate(15.715 -9.301)" fill="none" stroke="#333" stroke-width="1"/>
    <path id="Path_42" data-name="Path 42" d="M120.476,138.267l7.961-7.287" transform="translate(110.265 97.068)" fill="none" stroke="#333" stroke-width="1"/>
    <g transform="matrix(1, 0, 0, 1, 0, 0)" filter="url(#Union_17)">
      <path id="Union_17-2" data-name="Union 17" d="M252.627,79.246l5.08-73.666L322.787,0l21.287,31.83V87.713l-54.191,25.4ZM0,87.713V31.83L21.287,0,86.367,5.58l5.08,73.666L54.191,113.116Z" transform="translate(71.29 219.18)" fill="#384d5b" stroke="#333" stroke-width="4"/>
    </g>
    <path id="Path_38" data-name="Path 38" d="M120.476,138.267l7.961-7.287" transform="translate(21.624 -6.346)" fill="none" stroke="#333" stroke-width="1"/>
    <path id="Path_40" data-name="Path 40" d="M120.476,138.267l7.961-7.287" transform="translate(116.175 100.023)" fill="none" stroke="#333" stroke-width="1"/>
    <path id="Path_69" data-name="Path 69" d="M151.436,152.837,147.8,130.52l-17.75-1.661,12.664,5.917,5.086-1.868" transform="translate(6.99 -16.223)" fill="none" stroke="#333" stroke-linejoin="bevel" stroke-width="2"/>
    <path id="Path_70" data-name="Path 70" d="M130.053,152.837l3.633-22.317,17.75-1.661-12.664,5.917-5.086-1.868" transform="translate(199.046 -16.223)" fill="none" stroke="#333" stroke-linejoin="bevel" stroke-width="2"/>
    <g transform="matrix(1, 0, 0, 1, 0, 0)" filter="url(#Union_9)">
      <path id="Union_9-2" data-name="Union 9" d="M76.6,66.742l-23.2-28.649L38,0,0,67.771,12.561,121.6,55.2,130.846l27.5-37.59Z" transform="translate(90 136.57)" fill="#d6d9b6" stroke="#464540" stroke-linejoin="bevel" stroke-width="4"/>
    </g>
    <g transform="matrix(1, 0, 0, 1, 0, 0)" filter="url(#Union_25)">
      <path id="Union_25-2" data-name="Union 25" d="M76.6,66.742l-23.2-28.649L38,0,0,67.771,12.561,121.6,55.2,130.846l27.5-37.59Z" transform="translate(25.66 257.95) rotate(-30)" fill="#d6d9b6" stroke="#464540" stroke-linejoin="bevel" stroke-width="4"/>
    </g>
    <g transform="matrix(1, 0, 0, 1, 0, 0)" filter="url(#Union_27)">
      <path id="Union_27-2" data-name="Union 27" d="M76.6,64.1l-23.2,28.649L38,130.846,0,63.075,12.561,9.249,55.2,0l27.5,37.59Z" transform="translate(397.19 371.27) rotate(-150)" fill="#d6d9b6" stroke="#464540" stroke-linejoin="bevel" stroke-width="4"/>
    </g>
    <g transform="matrix(1, 0, 0, 1, 0, 0)" filter="url(#Union_11)">
      <path id="Union_11-2" data-name="Union 11" d="M76.6,64.1l-23.2,28.649L38,130.846,0,63.075,12.561,9.249,55.2,0l27.5,37.59Z" transform="translate(398.33 267.41) rotate(180)" fill="#d6d9b6" stroke="#464540" stroke-linejoin="bevel" stroke-width="4"/>
    </g>
    <path id="Path_74" data-name="Path 74" d="M40.028,49.635V54.88L29.993,57.616l-3.311,6.81-3.3.944L20.415,53.922" transform="translate(72.161 156.216)" fill="#9d9f85" stroke="#464540" stroke-linejoin="bevel" stroke-width="2"/>
    <path id="Path_166" data-name="Path 166" d="M19.612,0V5.245L9.578,7.982l-3.311,6.81-3.3.944L0,4.287" transform="translate(62.535 316.665) rotate(-30)" fill="#9d9f85" stroke="#464540" stroke-linejoin="bevel" stroke-width="2"/>
    <path id="Path_181" data-name="Path 181" d="M19.612,15.735V10.49L9.578,7.754,6.267.944,2.965,0,0,11.448" transform="translate(417.865 330.293) rotate(-150)" fill="#9d9f85" stroke="#464540" stroke-linejoin="bevel" stroke-width="2"/>
    <path id="Path_88" data-name="Path 88" d="M20.415,49.635V54.88L30.45,57.616l3.311,6.81,3.3.944,2.965-11.448" transform="translate(355.725 156.216)" fill="#9d9f85" stroke="#464540" stroke-linejoin="bevel" stroke-width="2"/>
    <path id="Path_75" data-name="Path 75" d="M137.595,245.739c-.311-1.779-5.351-8.3-5.351-8.3l24.9-29.943,6.819,2.372" transform="translate(6.558 19.837)" fill="#969881" stroke="#464540" stroke-linejoin="bevel" stroke-width="2"/>
    <path id="Path_168" data-name="Path 168" d="M5.351,38.244C5.04,36.465,0,29.943,0,29.943L24.9,0l6.819,2.372" transform="translate(113.309 312.156) rotate(-30)" fill="#969881" stroke="#464540" stroke-linejoin="bevel" stroke-width="2"/>
    <path id="Path_183" data-name="Path 183" d="M5.351,0C5.04,1.779,0,8.3,0,8.3L24.9,38.244l6.819-2.372" transform="translate(355.837 345.277) rotate(-150)" fill="#969881" stroke="#464540" stroke-linejoin="bevel" stroke-width="2"/>
    <path id="Path_100" data-name="Path 100" d="M158.614,245.74c.311-1.779,5.351-8.3,5.351-8.3l-24.9-29.943-6.819,2.372" transform="translate(185.562 19.837)" fill="#969881" stroke="#464540" stroke-linejoin="bevel" stroke-width="2"/>
    <path id="Path_73" data-name="Path 73" d="M19.4,61.755l17.195-4.447L40.91,51.89,49.343,41.3" transform="translate(74.631 149.282)" fill="#d6d9b6" stroke="#464540" stroke-linejoin="bevel" stroke-width="2"/>
    <path id="Path_165" data-name="Path 165" d="M0,20.456l17.195-4.447,4.315-5.418L29.943,0" transform="translate(56.16 302.714) rotate(-30)" fill="#d6d9b6" stroke="#464540" stroke-linejoin="bevel" stroke-width="2"/>
    <path id="Path_180" data-name="Path 180" d="M0,0,17.195,4.447,21.51,9.865l8.433,10.591" transform="translate(421.879 320.43) rotate(-150)" fill="#d6d9b6" stroke="#464540" stroke-linejoin="bevel" stroke-width="2"/>
    <path id="Path_89" data-name="Path 89" d="M49.343,61.755,32.148,57.308,27.833,51.89,19.4,41.3" transform="translate(344.955 149.282)" fill="#d6d9b6" stroke="#464540" stroke-linejoin="bevel" stroke-width="2"/>
    <path id="Union_10" data-name="Union 10" d="M30.122,11.387l-6.941,6.24Zm-2.575-1.265-6.941,6.24ZM24.97,8.857,18.031,15.1ZM22.394,7.592l-6.941,6.24ZM19.819,6.327l-6.941,6.24ZM17.244,5.061,10.3,11.3ZM14.667,3.8,7.728,10.037ZM12.091,2.53,5.151,8.772ZM9.516,1.265,2.575,7.505ZM6.941,0,0,6.24Z" transform="matrix(0.978, -0.208, 0.208, 0.978, 102.825, 251.387)" fill="none" stroke="#464540" stroke-linejoin="bevel" stroke-width="1"/>
    <path id="Union_26" data-name="Union 26" d="M30.122,11.387l-6.941,6.24Zm-2.575-1.265-6.941,6.24ZM24.97,8.857,18.031,15.1ZM22.394,7.592l-6.941,6.24ZM19.819,6.327l-6.941,6.24ZM17.244,5.061,10.3,11.3ZM14.667,3.8,7.728,10.037ZM12.091,2.53,5.151,8.772ZM9.516,1.265,2.575,7.505ZM6.941,0,0,6.24Z" transform="translate(94.179 350.976) rotate(-42)" fill="none" stroke="#464540" stroke-linejoin="bevel" stroke-width="1"/>
    <path id="Union_28" data-name="Union 28" d="M30.122,6.24,23.181,0ZM27.547,7.505l-6.941-6.24ZM24.97,8.771,18.031,2.53Zm-2.575,1.265L15.454,3.8ZM19.819,11.3l-6.941-6.24Zm-2.575,1.266L10.3,6.326Zm-2.577,1.265L7.728,7.591ZM12.091,15.1,5.151,8.856ZM9.516,16.363l-6.941-6.24ZM6.941,17.628,0,11.387Z" transform="translate(382.293 364.076) rotate(-138)" fill="none" stroke="#464540" stroke-linejoin="bevel" stroke-width="1"/>
    <path id="Union_12" data-name="Union 12" d="M30.122,6.24,23.181,0ZM27.547,7.505l-6.941-6.24ZM24.97,8.771,18.031,2.53Zm-2.575,1.265L15.454,3.8ZM19.819,11.3l-6.941-6.24Zm-2.575,1.266L10.3,6.326Zm-2.577,1.265L7.728,7.591ZM12.091,15.1,5.151,8.856ZM9.516,16.363l-6.941-6.24ZM6.941,17.628,0,11.387Z" transform="matrix(-0.978, -0.208, 0.208, -0.978, 381.838, 268.629)" fill="none" stroke="#464540" stroke-linejoin="bevel" stroke-width="1"/>
    <path id="Path_86" data-name="Path 86" d="M170.635,237.292,165.507,213,141.893,184.4l-15.518-36.974L122.256,168.4l7.3,18.016,24.857,28.962,7.858,20.164,9.716,3.508" transform="translate(1.791 -8.839)" fill="#969881" stroke="#464540" stroke-linejoin="bevel" stroke-width="2"/>
    <path id="Path_167" data-name="Path 167" d="M48.379,89.87,43.251,65.581,19.637,36.974,4.119,0,0,20.974,7.3,38.99,32.155,67.952l7.858,20.164,9.716,3.508" transform="translate(56.156 242.674) rotate(-30)" fill="#969881" stroke="#464540" stroke-linejoin="bevel" stroke-width="2"/>
    <path id="Path_182" data-name="Path 182" d="M48.379,1.754,43.251,26.044,19.637,54.651,4.119,91.625,0,70.651,7.3,52.635,32.155,23.673,40.013,3.508,49.729,0" transform="translate(386.299 322.023) rotate(-150)" fill="#969881" stroke="#464540" stroke-linejoin="bevel" stroke-width="2"/>
    <path id="Path_101" data-name="Path 101" d="M123.605,237.292,128.733,213,152.348,184.4l15.518-36.974,4.119,20.974-7.3,18.016L139.83,215.374l-7.858,20.164-9.716,3.508" transform="translate(192.297 -8.839)" fill="#969881" stroke="#464540" stroke-linejoin="bevel" stroke-width="2"/>
    <path id="Union_32" data-name="Union 32" d="M14,51.382H11.819v-.138L0,39.793,4.509,18.248,0,8.228,11.546,0h2.868L25.959,8.228l-4.509,10.02,4.509,21.545L14.142,51.243v.139Z" transform="translate(230.519 305.314)" fill="none" stroke="#464540" stroke-linejoin="bevel" stroke-width="4"/>
    <g transform="matrix(1, 0, 0, 1, 0, 0)" filter="url(#Union_16)">
      <path id="Union_16-2" data-name="Union 16" d="M14,51.382H11.819v-.138L0,39.793,4.509,18.248,0,8.228,11.546,0h2.868L25.959,8.228l-4.509,10.02,4.509,21.545L14.142,51.243v.139Z" transform="translate(230.52 305.31)" fill="#00ffb9" stroke="#00e8d0" stroke-width="1"/>
    </g>
    <path id="Path_205" data-name="Path 205" d="M149.937,230.34l11.878,7.479L165.554,253l-5.059,6.379Z" transform="translate(15.004 30.742)" fill="#969881" stroke="#464540" stroke-width="2"/>
    <path id="Path_206" data-name="Path 206" d="M157.969,243.542l14.057-18.277-2.083-6.768" transform="translate(18.838 25.088)" fill="none" stroke="#464540" stroke-width="2"/>
    <path id="Path_207" data-name="Path 207" d="M167.484,223.165l5.312,1.663" transform="translate(23.38 27.317)" fill="none" stroke="#464540" stroke-width="2"/>
    <path id="Path_210" data-name="Path 210" d="M172.8,223.165l-5.312,1.663" transform="translate(123.84 28.794)" fill="none" stroke="#464540" stroke-width="2"/>
  </g>
</svg>
